<svg width="100" height="57" viewBox="0 0 100 57" fill="none" xmlns="http://www.w3.org/2000/svg">
<path d="M73.0126 42.0927C70.7166 42.0927 68.8489 40.2235 68.8489 37.9274C68.8489 35.6314 70.7166 33.7637 73.0126 33.7637C75.3091 33.7637 77.1768 35.631 77.1768 37.9274C77.1768 40.2239 75.3091 42.0927 73.0126 42.0927ZM26.9874 42.0927C24.6913 42.0927 22.8236 40.2235 22.8236 37.9274C22.8236 35.6314 24.6909 33.7637 26.9874 33.7637C29.2834 33.7637 31.1511 35.631 31.1511 37.9274C31.1511 40.2239 29.2838 42.0927 26.9874 42.0927ZM74.5061 17.0096L82.8283 2.59615C83.0574 2.19837 83.1193 1.72597 83.0005 1.28258C82.8817 0.839201 82.5918 0.461059 82.1945 0.231127C81.7967 0.00214941 81.3244 -0.0597225 80.881 0.0590811C80.4377 0.177885 80.0595 0.467664 79.8295 0.864872L71.4033 15.4605C64.9592 12.52 57.7223 10.8817 50 10.8817C42.2777 10.8817 35.0409 12.52 28.5971 15.4605L20.1705 0.864872C19.9405 0.467664 19.5624 0.177885 19.119 0.0590811C18.6756 -0.0597225 18.2033 0.00214941 17.8055 0.231127C17.408 0.460843 17.1179 0.838989 16.9991 1.28246C16.8802 1.72593 16.9423 2.19844 17.1717 2.59615L25.4939 17.0096C11.2035 24.7819 1.42983 39.249 0 56.3411H100C98.569 39.2494 88.7953 24.7819 74.5061 17.0092" fill="#7F8C8D"/>
</svg>
