<svg width="16" height="16" viewBox="0 0 16 16" fill="none" xmlns="http://www.w3.org/2000/svg">
<g clip-path="url(#clip0_1_1321)">
<path d="M12.294 7.7683C13.3629 7.84163 14.2195 7.1515 14.4405 6.19992C14.053 5.65089 13.2405 5.39017 12.5238 5.84507C11.8793 6.30134 11.7035 7.09898 12.294 7.7683ZM9.40015 0.335375L5.53158 2.47204L6.42617 2.94138L10.2914 0.811279L9.40015 0.335375ZM5.72947 6.21219L9.5089 14.8365L10.5179 15.4563L6.29207 3.21613L5.28546 2.67647L1.26155 10.2688L1.99586 10.6809L5.46453 6.1803C5.54042 6.09534 5.66734 6.09258 5.72947 6.21219ZM12.4791 8.26286C11.38 7.6578 11.38 6.13695 12.4791 5.53189C13.5782 4.92683 14.9596 5.68726 14.9596 6.89738C14.9596 8.10749 13.5782 8.86792 12.4791 8.26286ZM13.7277 9.40071L15.1358 13.506L10.8359 16L9.2534 15.0178L6.41963 8.55738L2.03467 11.0278L0.859375 10.3668L5.11178 2.36851L9.39414 0L10.7286 0.716774L12.0799 4.66747C9.46868 6.10716 10.781 9.75726 13.7277 9.40071Z" fill="#7F8C8D"/>
</g>
<defs>
<clipPath id="clip0_1_1321">
<rect width="16" height="16" fill="white"/>
</clipPath>
</defs>
</svg>
